<?xml version="1.0"?>
<svg xmlns="http://www.w3.org/2000/svg" id="Layer_3_copy_2" data-name="Layer 3 copy 2" viewBox="0 0 64 64" width="512" height="512"><path d="M52,38.5A19.9,19.9,0,0,1,46.713,52H53V64h5.062L58,44c0-3.153-2.868-5.732-6-5.976Z"/><path d="M12,52h5.287A19.9,19.9,0,0,1,12,38.5v-.41A6,6,0,0,0,7,44V64h5Z"/><path d="M32,58.5A19.9,19.9,0,0,1,19.382,54H14V64H51V54H44.618A19.9,19.9,0,0,1,32,58.5Z"/><path d="M34,36V18a4,4,0,0,0-4-4H19v3l-5,6,5,1v7h9v5Z"/><path d="M32,47a9.016,9.016,0,0,0,2-.229V38H23A9.01,9.01,0,0,0,32,47Z"/><path d="M34,48.809A10.963,10.963,0,0,1,21,38H14v.5A17.951,17.951,0,0,0,34,56.383ZM20,46H18a1,1,0,0,1,0-2h2a1,1,0,0,1,0,2Zm5,7H23a1,1,0,0,1,0-2h2a1,1,0,0,1,0,2Z"/><path d="M49,38v2H44V51.889A17.935,17.935,0,0,0,50,38.5V38Zm-1,6H46a1,1,0,0,1,0-2h2a1,1,0,0,1,0,2Z"/><path d="M46,7.83a.975.975,0,0,1-.56.17H19.22A24.487,24.487,0,0,0,16,12H30a6,6,0,0,1,6,6V56.05c1.17.17,6-2.58,6-2.58V38h5V10A10.551,10.551,0,0,0,46,7.83ZM41,31H39a1,1,0,0,1,0-2h2a1,1,0,0,1,0,2Zm3-10H42a1,1,0,0,1,0-2h2a1,1,0,0,1,0,2ZM32,2a15.287,15.287,0,0,0-6.42,1.43A19.584,19.584,0,0,0,21.44,6H44.58C40.01,1.33,32,2,32,2Z"/><path d="M21.44,6a22.1,22.1,0,0,0-2.22,2H16a1,1,0,0,1-1-1V2H12a1,1,0,0,1,0-2h4a1,1,0,0,1,1,1V6Z"/></svg>
