<?xml version="1.0"?>
<svg xmlns="http://www.w3.org/2000/svg" id="Layer_3_copy_2" data-name="Layer 3 copy 2" viewBox="0 0 64 64" width="512" height="512"><path d="M32,5a1,1,0,0,1-1-1V1a1,1,0,0,1,2,0V4A1,1,0,0,1,32,5Z"/><path d="M22,10.25V20a1.726,1.726,0,0,1-.08.54A1.983,1.983,0,0,1,20,22a6.64,6.64,0,0,0-1.55.18L16,14l3-1.87Z"/><path d="M48,14l-2.45,8.18h-.01A6.555,6.555,0,0,0,44,22H43c-.39,0-.78,0-.95-1.25A5.215,5.215,0,0,1,42,20V10.25l2.83,1.77Z"/><path d="M8,51a5.99,5.99,0,0,0-5.76,4.34A5.7,5.7,0,0,0,2,57v6H9V57a1,1,0,0,1,2,0v6h6V57a1,1,0,0,1,2,0v6h7V51Z"/><path d="M61.76,55.34A5.99,5.99,0,0,0,56,51H38V63h7V57a1,1,0,0,1,2,0v6h6V57a1,1,0,0,1,2,0v6h7V57A5.7,5.7,0,0,0,61.76,55.34Z"/><path d="M32.82,22.38,40,18.86V9c0-2.654-2.373-4.264-5.02-4.8a2.99,2.99,0,0,1-5.974-.143C26.169,4.368,24,6.029,24,9v9.91l7.09,3.52A1.858,1.858,0,0,0,32.82,22.38ZM31,12a1,1,0,0,1,2,0v4a1,1,0,0,1-2,0Z"/><path d="M53.09,39.54,49,33V29a4.985,4.985,0,0,0-5-5H43c-1.85,0-2.7-1.25-2.93-2.95l-6.32,3.1a3.72,3.72,0,0,1-1.82.48,3.925,3.925,0,0,1-1.73-.41l-6.35-3.15A3.987,3.987,0,0,1,20,24a4.985,4.985,0,0,0-5,5v4l-4.09,6.54A6.055,6.055,0,0,0,10,42.72V49H25.046A.959.959,0,0,1,25,48.771V41a1,1,0,0,1,2,0v7.771a.959.959,0,0,1-.046.229H28V63h8V49h1.046A.959.959,0,0,1,37,48.771V41a1,1,0,0,1,2,0v7.771a.959.959,0,0,1-.046.229H54V42.72A6.055,6.055,0,0,0,53.09,39.54ZM19,43H15a1,1,0,0,1,0-2h4a1,1,0,0,1,0,2Zm7-9H18a1,1,0,0,1,0-2h8a1,1,0,0,1,0,2Zm12-1a1,1,0,0,1,1-1h4a1,1,0,0,1,0,2H39A1,1,0,0,1,38,33Zm10.373,9H43a1,1,0,0,1,0-2h5.373a1,1,0,1,1,0,2Z"/></svg>
