<svg id="Layer_3_copy_2" height="512" viewBox="0 0 64 64" width="512" xmlns="http://www.w3.org/2000/svg" data-name="Layer 3 copy 2"><path d="m16 48.938a8.006 8.006 0 0 1 -7-7.931v-6.007h-6s-2 22 10 25h3z"/><path d="m60.875 35h-5.875v6.007a8.006 8.006 0 0 1 -7 7.931v11.062h2.875c12-3 10-25 10-25z"/><path d="m62.882 35c.186 2.337 1.52 23.68-11.522 26.94l-.239.06h-38.367l-.239-.06c-13.042-3.26-11.708-24.603-11.522-26.94h-.993v29h64v-29z"/><path d="m18 54h7v7h-7z"/><path d="m39 54h7v7h-7z"/><path d="m17 47h1v5h7v-10h-13.911a5.994 5.994 0 0 0 5.911 5z"/><path d="m17 47h1v5h7v-10h-13.911"/><path d="m18 54h7v7h-7z"/><path d="m20 13h.7l-1.69-11.858a.943.943 0 0 1 .008-.142h-2.018a6 6 0 0 0 -6 6v7h9z"/><path d="m11 16h9v7h-9z"/><path d="m20 31v-6h-9v6h6a1 1 0 0 1 0 2h-6v7h14v-1.589a8.009 8.009 0 0 1 -5-7.411z"/><path d="m44 16h9v7h-9z"/><path d="m47 1h-1.019a.955.955 0 0 1 0 .209l-2.53 11.791h.549v1h9v-7a6 6 0 0 0 -6-6z"/><path d="m39 54h7v7h-7z"/><path d="m44 31a8.009 8.009 0 0 1 -5 7.411v1.589h4a1 1 0 0 1 0 2h-4v10h7v-5h1a6 6 0 0 0 5.909-5h-5.909a1 1 0 0 1 0-2h6v-7h-6a1 1 0 0 1 0-2h6v-6h-9z"/><path d="m28 8h3v-7h-9.99l1.714 12h5.276z"/><path d="m33 1v7h3v5h5.406l2.571-12z"/><path d="m37 38.93v21.07h-10v-21.07c.14.02 1.95.03 4 .03v17.04a1 1 0 0 0 2 0v-17.04c2.05 0 3.86-.01 4-.03z"/><path d="m22 15v16a6 6 0 0 0 6 6h3a1 1 0 0 1 2 0h3a6 6 0 0 0 6-6v-16zm17 8h-6v6a1 1 0 0 1 -2 0v-6h-6a1 1 0 0 1 0-2h14a1 1 0 0 1 0 2z"/></svg>