<?xml version="1.0"?>
<svg xmlns="http://www.w3.org/2000/svg" id="Layer_3_copy_2" data-name="Layer 3 copy 2" viewBox="0 0 64 64" width="512" height="512"><path d="M25,1c-2.41,0-4.06,1.78-5,4L15.63,15H20a1,1,0,0,1,0,2H15.19a.9.9,0,0,1-.4-.09L11.8,23.75A3.051,3.051,0,0,0,14.61,28H28a7.092,7.092,0,0,1,5.31,2.87A7.219,7.219,0,0,1,34,32V52l2-4L63,1Zm7,21H29a1,1,0,0,1,0-2h3a1,1,0,0,1,0,2Zm2-10a1,1,0,0,1,1-1h3a1,1,0,0,1,0,2H35A1,1,0,0,1,34,12Zm5,13H36a1,1,0,0,1,0-2h3a1,1,0,0,1,0,2Zm8-14H44a1,1,0,0,1,0-2h3a1,1,0,0,1,0,2Z"/><path d="M33.36,54H32V43l-2,4H27l2-6h3V32.505a4.454,4.454,0,0,0-.285-.428A5.1,5.1,0,0,0,27.978,30H14.61a5.057,5.057,0,0,1-1.209-.148h-.007A11.736,11.736,0,0,0,10.51,33.66c2.34-.96,8.49-2.69,15.98,1.47A1,1,0,0,1,26,37a.973.973,0,0,1-.49-.13c-8.36-4.64-14.75-1.15-15.02-1a1.012,1.012,0,0,1-.68.11,9.109,9.109,0,0,0,0,3.04A1.113,1.113,0,0,1,10,39h7a1,1,0,0,1,0,2H10a1.014,1.014,0,0,1-.71-.29L4,46l6,2L8.5,51H13a1,1,0,0,1,0,2H8a1,1,0,0,1-.45-.11L5,58H18l2.5,6h14S31.626,60.678,33.36,54Z"/></svg>
