<svg id="Layer_3_copy_2" height="512" viewBox="0 0 64 64" width="512" xmlns="http://www.w3.org/2000/svg" data-name="Layer 3 copy 2"><path d="m35 13.27v12.73h-9v-25z"/><path d="m52 59v4.988l4.4.012 4-5z"/><path d="m8 57 4.13 6.884 8.87.023v-6.907zm11 6h-4a1 1 0 0 1 0-2h4a1 1 0 0 1 0 2z"/><path d="m59.98 55c-.4-18.28-11.98-26-11.98-26l2-3-13-24v26h-13c-8 0-8 8-8 8l-14 1 1.23 2.76 2.77 6.24h17v18h6v-7h12v5h9v-5h10s0-1.67-.02-2zm-36.98-20a1 1 0 0 1 1-1h6a1 1 0 0 1 0 2h-6a1 1 0 0 1 -1-1zm8 13h-4a1 1 0 0 1 0-2h4a1 1 0 0 1 0 2zm15-13h4v4h-4zm6 10h-4v-4h4z"/><path d="m31 59v4.934l8 .021v-4.955zm6 4h-4a1 1 0 0 1 0-2h4a1 1 0 0 1 0 2z"/></svg>