<?xml version="1.0"?>
<svg xmlns="http://www.w3.org/2000/svg" id="Layer_3_copy_2" data-name="Layer 3 copy 2" viewBox="0 0 64 64" width="512" height="512"><path d="M16.685,29.107l23.326-16.6a1,1,0,0,1-.171-.468L39.46,7.5a5.938,5.938,0,0,0-.869-2.626L27.754,11.367,26.719,9.656,37.255,3.345l-.005,0A5.959,5.959,0,0,0,33.48,2H31.43a6.007,6.007,0,0,0-5.97,5.4l-.45,4.46A1.261,1.261,0,0,1,23.75,13,8.553,8.553,0,0,0,15.4,23.48ZM16.9,20h2.975a1,1,0,0,1,0,2H16.9a1,1,0,0,1,0-2Z"/><path d="M17.167,31.217l2.454,10.745,29.236-19.7a7.5,7.5,0,0,0-6.278-9.12ZM28,31H25a1,1,0,0,1,0-2h3a1,1,0,0,1,0,2ZM45,21a1,1,0,0,1-1,1H40.5a1,1,0,0,1,0-2H44A1,1,0,0,1,45,21Z"/><path d="M20.1,44.055,21,48l.019,6.708L43.4,39H41a1,1,0,0,1,0-2h3a.99.99,0,0,1,.978.893l.394-.277L48.233,25.1ZM32,43H28.951a1,1,0,1,1,0-2H32a1,1,0,0,1,0,2Z"/><path d="M43.046,54.164,30.086,62H37.56a5.248,5.248,0,0,0,5.5-5.94Z"/><path d="M43.029,51.841,43,48l1.7-7.46L21.155,57.063c.526,2.611,2.4,4.808,5.07,4.923ZM31.507,54h2.718a1,1,0,0,1,0,2H31.507a1,1,0,0,1,0-2Z"/></svg>
