<svg width="512" height="512" viewBox="0 0 512 512" fill="none" xmlns="http://www.w3.org/2000/svg">
<path d="M133.48 232.856L320.088 100.056C319.323 98.9434 318.853 97.6554 318.72 96.312L315.68 60C315.049 52.5477 312.667 45.3498 308.728 38.992L222.032 90.936L213.752 77.248L298.04 26.76H298C289.488 19.8031 278.833 16.0019 267.84 16H251.44C239.544 16.0124 228.076 20.4365 219.253 28.4165C210.431 36.3964 204.882 47.365 203.68 59.2L200.08 94.88C199.839 97.383 198.671 99.7056 196.807 101.393C194.942 103.08 192.515 104.01 190 104C179.693 103.98 169.514 106.288 160.224 110.753C150.934 115.218 142.773 121.724 136.35 129.786C129.927 137.847 125.408 147.255 123.131 157.308C120.854 167.361 120.878 177.798 123.2 187.84L133.48 232.856ZM135.2 160H159C161.122 160 163.157 160.843 164.657 162.343C166.157 163.843 167 165.878 167 168C167 170.122 166.157 172.157 164.657 173.657C163.157 175.157 161.122 176 159 176H135.2C133.078 176 131.043 175.157 129.543 173.657C128.043 172.157 127.2 170.122 127.2 168C127.2 165.878 128.043 163.843 129.543 162.343C131.043 160.843 133.078 160 135.2 160Z" fill="white"/>
<path d="M137.336 249.736L156.968 335.696L390.856 178.096C392.735 169.978 392.902 161.557 391.346 153.371C389.791 145.184 386.548 137.411 381.823 130.548C377.098 123.684 370.995 117.879 363.903 113.504C356.811 109.129 348.886 106.279 340.632 105.136L137.336 249.736ZM224 248H200C197.878 248 195.843 247.157 194.343 245.657C192.843 244.157 192 242.122 192 240C192 237.878 192.843 235.843 194.343 234.343C195.843 232.843 197.878 232 200 232H224C226.122 232 228.157 232.843 229.657 234.343C231.157 235.843 232 237.878 232 240C232 242.122 231.157 244.157 229.657 245.657C228.157 247.157 226.122 248 224 248ZM360 168C360 170.122 359.157 172.157 357.657 173.657C356.157 175.157 354.122 176 352 176H324C321.878 176 319.843 175.157 318.343 173.657C316.843 172.157 316 170.122 316 168C316 165.878 316.843 163.843 318.343 162.343C319.843 160.843 321.878 160 324 160H352C354.122 160 356.157 160.843 357.657 162.343C359.157 163.843 360 165.878 360 168Z" fill="white"/>
<path d="M160.8 352.44L168 384L168.152 437.664L347.2 312H328C325.878 312 323.843 311.157 322.343 309.657C320.843 308.157 320 306.122 320 304C320 301.878 320.843 299.843 322.343 298.343C323.843 296.843 325.878 296 328 296H352C353.956 296.014 355.838 296.752 357.282 298.071C358.727 299.39 359.632 301.197 359.824 303.144L362.976 300.928L385.864 200.8L160.8 352.44ZM256 344H231.608C229.486 344 227.451 343.157 225.951 341.657C224.451 340.157 223.608 338.122 223.608 336C223.608 333.878 224.451 331.843 225.951 330.343C227.451 328.843 229.486 328 231.608 328H256C258.122 328 260.157 328.843 261.657 330.343C263.157 331.843 264 333.878 264 336C264 338.122 263.157 340.157 261.657 341.657C260.157 343.157 258.122 344 256 344Z" fill="white"/>
<path d="M344.368 433.312L240.688 496H300.48C306.658 496.353 312.839 495.335 318.578 493.02C324.317 490.705 329.473 487.149 333.678 482.608C337.882 478.068 341.031 472.653 342.899 466.753C344.766 460.853 345.306 454.613 344.48 448.48L344.368 433.312Z" fill="white"/>
<path d="M344.232 414.728L344 384L357.6 324.32L169.24 456.504C173.448 477.392 188.44 494.968 209.8 495.888L344.232 414.728ZM252.056 432H273.8C275.922 432 277.957 432.843 279.457 434.343C280.957 435.843 281.8 437.878 281.8 440C281.8 442.122 280.957 444.157 279.457 445.657C277.957 447.157 275.922 448 273.8 448H252.056C249.934 448 247.899 447.157 246.399 445.657C244.899 444.157 244.056 442.122 244.056 440C244.056 437.878 244.899 435.843 246.399 434.343C247.899 432.843 249.934 432 252.056 432Z" fill="white"/>
</svg>
