<svg width="512" height="512" viewBox="0 0 512 512" fill="none" xmlns="http://www.w3.org/2000/svg">
<g clip-path="url(#clip0)">
<path d="M200 8C180.72 8 167.52 22.24 160 40L125.04 120H160C162.122 120 164.156 120.843 165.657 122.343C167.157 123.843 168 125.878 168 128C168 130.122 167.157 132.157 165.657 133.657C164.156 135.157 162.122 136 160 136H121.52C120.412 136.009 119.317 135.763 118.32 135.28L94.3998 190C92.8121 193.715 92.1714 197.766 92.5352 201.79C92.8989 205.813 94.2557 209.684 96.4839 213.054C98.7121 216.424 101.742 219.188 105.302 221.098C108.861 223.009 112.84 224.006 116.88 224H224C232.333 224.467 240.462 226.766 247.804 230.735C255.147 234.704 261.524 240.244 266.48 246.96C268.593 249.798 270.441 252.824 272 256V416L288 384L504 8H200ZM256 176H232C229.878 176 227.843 175.157 226.343 173.657C224.843 172.157 224 170.122 224 168C224 165.878 224.843 163.843 226.343 162.343C227.843 160.843 229.878 160 232 160H256C258.122 160 260.156 160.843 261.657 162.343C263.157 163.843 264 165.878 264 168C264 170.122 263.157 172.157 261.657 173.657C260.156 175.157 258.122 176 256 176ZM272 96C272 93.8783 272.843 91.8434 274.343 90.3431C275.843 88.8429 277.878 88 280 88H304C306.122 88 308.156 88.8429 309.657 90.3431C311.157 91.8434 312 93.8783 312 96C312 98.1217 311.157 100.157 309.657 101.657C308.156 103.157 306.122 104 304 104H280C277.878 104 275.843 103.157 274.343 101.657C272.843 100.157 272 98.1217 272 96ZM312 200H288C285.878 200 283.843 199.157 282.343 197.657C280.843 196.157 280 194.122 280 192C280 189.878 280.843 187.843 282.343 186.343C283.843 184.843 285.878 184 288 184H312C314.122 184 316.156 184.843 317.657 186.343C319.157 187.843 320 189.878 320 192C320 194.122 319.157 196.157 317.657 197.657C316.156 199.157 314.122 200 312 200ZM376 88H352C349.878 88 347.843 87.1571 346.343 85.6569C344.843 84.1566 344 82.1217 344 80C344 77.8783 344.843 75.8434 346.343 74.3431C347.843 72.8429 349.878 72 352 72H376C378.122 72 380.156 72.8429 381.657 74.3431C383.157 75.8434 384 77.8783 384 80C384 82.1217 383.157 84.1566 381.657 85.6569C380.156 87.1571 378.122 88 376 88Z" fill="white"/>
<path d="M266.88 432H256V344L240 376H216L232 328H256V260.04C255.307 258.856 254.545 257.712 253.72 256.616C250.236 251.848 245.759 247.893 240.597 245.024C235.436 242.155 229.713 240.441 223.824 240H116.88C113.62 239.996 110.373 239.599 107.208 238.816H107.152C97.4542 247.282 89.6009 257.651 84.08 269.28C102.8 261.6 152 247.76 211.92 281.04C213.455 281.91 214.66 283.263 215.346 284.889C216.032 286.514 216.162 288.321 215.714 290.028C215.267 291.735 214.268 293.246 212.873 294.326C211.478 295.406 209.764 295.995 208 296C206.624 296.006 205.272 295.647 204.08 294.96C137.2 257.84 86.08 285.76 83.92 286.96C82.2654 287.88 80.3405 288.192 78.48 287.84C77.1177 295.889 77.1177 304.111 78.48 312.16C78.9811 312.063 79.4897 312.01 80 312H136C138.122 312 140.157 312.843 141.657 314.343C143.157 315.843 144 317.878 144 320C144 322.122 143.157 324.157 141.657 325.657C140.157 327.157 138.122 328 136 328H80C77.8759 328 75.8366 327.167 74.32 325.68L32 368L80 384L68 408H104C106.122 408 108.157 408.843 109.657 410.343C111.157 411.843 112 413.878 112 416C112 418.122 111.157 420.157 109.657 421.657C108.157 423.157 106.122 424 104 424H64C62.7477 423.992 61.5146 423.691 60.4 423.12L40 464H144L164 512H276C276 512 253.008 485.424 266.88 432Z" fill="white"/>
</g>
<defs>
<clipPath id="clip0">
<rect width="512" height="512" fill="white"/>
</clipPath>
</defs>
</svg>
