<svg width="512" height="512" viewBox="0 0 512 512" fill="none" xmlns="http://www.w3.org/2000/svg">
<path d="M280 106.16V208H208V8L280 106.16Z" fill="white"/>
<path d="M416 472V511.904L451.2 512L483.2 472H416Z" fill="white"/>
<path d="M64 456L97.04 511.072L168 511.256V456H64ZM152 504H120C117.878 504 115.843 503.157 114.343 501.657C112.843 500.157 112 498.122 112 496C112 493.878 112.843 491.843 114.343 490.343C115.843 488.843 117.878 488 120 488H152C154.122 488 156.157 488.843 157.657 490.343C159.157 491.843 160 493.878 160 496C160 498.122 159.157 500.157 157.657 501.657C156.157 503.157 154.122 504 152 504Z" fill="white"/>
<path d="M479.84 440C476.64 293.76 384 232 384 232L400 208L296 16V224H192C128 224 128 288 128 288L16 296L25.84 318.08L48 368H184V512H232V456H328V496H400V456H480C480 456 480 442.64 479.84 440ZM184 280C184 277.878 184.843 275.843 186.343 274.343C187.843 272.843 189.878 272 192 272H240C242.122 272 244.157 272.843 245.657 274.343C247.157 275.843 248 277.878 248 280C248 282.122 247.157 284.157 245.657 285.657C244.157 287.157 242.122 288 240 288H192C189.878 288 187.843 287.157 186.343 285.657C184.843 284.157 184 282.122 184 280ZM248 384H216C213.878 384 211.843 383.157 210.343 381.657C208.843 380.157 208 378.122 208 376C208 373.878 208.843 371.843 210.343 370.343C211.843 368.843 213.878 368 216 368H248C250.122 368 252.157 368.843 253.657 370.343C255.157 371.843 256 373.878 256 376C256 378.122 255.157 380.157 253.657 381.657C252.157 383.157 250.122 384 248 384ZM368 280H400V312H368V280ZM416 360H384V328H416V360Z" fill="white"/>
<path d="M248 472V511.472L312 511.64V472H248ZM296 504H264C261.878 504 259.843 503.157 258.343 501.657C256.843 500.157 256 498.122 256 496C256 493.878 256.843 491.843 258.343 490.343C259.843 488.843 261.878 488 264 488H296C298.122 488 300.157 488.843 301.657 490.343C303.157 491.843 304 493.878 304 496C304 498.122 303.157 500.157 301.657 501.657C300.157 503.157 298.122 504 296 504Z" fill="white"/>
</svg>
