<svg width="512" height="512" viewBox="0 0 512 512" fill="none" xmlns="http://www.w3.org/2000/svg">
<path d="M256 40C253.878 40 251.843 39.1571 250.343 37.6569C248.843 36.1566 248 34.1217 248 32V8C248 5.87827 248.843 3.84344 250.343 2.34315C251.843 0.842855 253.878 0 256 0C258.122 0 260.157 0.842855 261.657 2.34315C263.157 3.84344 264 5.87827 264 8V32C264 34.1217 263.157 36.1566 261.657 37.6569C260.157 39.1571 258.122 40 256 40Z" fill="white"/>
<path d="M176 82V160C176.017 161.465 175.801 162.923 175.36 164.32C174.44 167.685 172.437 170.652 169.66 172.764C166.883 174.875 163.488 176.013 160 176C155.824 175.991 151.662 176.474 147.6 177.44L128 112L152 97.04L176 82Z" fill="white"/>
<path d="M384 112L364.4 177.44H364.32C360.285 176.474 356.149 175.991 352 176H344C340.88 176 337.76 176 336.4 166C336.123 164.012 335.989 162.007 336 160V82L358.64 96.16L384 112Z" fill="white"/>
<path d="M63.9999 408C53.5903 407.997 43.4628 411.384 35.149 417.648C26.8352 423.912 20.7873 432.713 17.9199 442.72C16.6285 447.028 15.9815 451.503 15.9999 456V504H71.9999V456C71.9999 453.878 72.8427 451.843 74.343 450.343C75.8433 448.843 77.8782 448 79.9999 448C82.1216 448 84.1565 448.843 85.6567 450.343C87.157 451.843 87.9999 453.878 87.9999 456V504H136V456C136 453.878 136.843 451.843 138.343 450.343C139.843 448.843 141.878 448 144 448C146.122 448 148.156 448.843 149.657 450.343C151.157 451.843 152 453.878 152 456V504H208V408H63.9999Z" fill="white"/>
<path d="M494.08 442.72C491.213 432.713 485.165 423.912 476.851 417.648C468.537 411.384 458.41 407.997 448 408H304V504H360V456C360 453.878 360.843 451.843 362.343 450.343C363.843 448.843 365.878 448 368 448C370.122 448 372.157 448.843 373.657 450.343C375.157 451.843 376 453.878 376 456V504H424V456C424 453.878 424.843 451.843 426.343 450.343C427.843 448.843 429.878 448 432 448C434.122 448 436.157 448.843 437.657 450.343C439.157 451.843 440 453.878 440 456V504H496V456C496.018 451.503 495.371 447.028 494.08 442.72V442.72Z" fill="white"/>
<path d="M262.56 179.04L320 150.88V72C320 50.768 301.016 37.888 279.84 33.6C279.458 39.7753 276.698 45.5624 272.139 49.7458C267.581 53.9293 261.579 56.1837 255.393 56.0356C249.208 55.8876 243.32 53.3486 238.967 48.9518C234.614 44.555 232.134 38.6425 232.048 32.456C209.352 34.944 192 48.232 192 72V151.28L248.72 179.44C250.886 180.501 253.278 181.02 255.689 180.95C258.101 180.88 260.459 180.225 262.56 179.04ZM248 96C248 93.8783 248.843 91.8434 250.343 90.3431C251.843 88.8428 253.878 88 256 88C258.122 88 260.157 88.8428 261.657 90.3431C263.157 91.8434 264 93.8783 264 96V128C264 130.122 263.157 132.157 261.657 133.657C260.157 135.157 258.122 136 256 136C253.878 136 251.843 135.157 250.343 133.657C248.843 132.157 248 130.122 248 128V96Z" fill="white"/>
<path d="M424.72 316.32L392 264V232C392.016 226.743 390.992 221.534 388.987 216.674C386.983 211.814 384.037 207.398 380.32 203.68C376.602 199.963 372.186 197.017 367.326 195.013C362.466 193.008 357.257 191.984 352 192H344C329.2 192 322.4 182 320.56 168.4L270 193.2C265.556 195.707 260.542 197.029 255.44 197.04C250.637 197.02 245.902 195.898 241.6 193.76L190.8 168.56C188.946 175.303 184.927 181.25 179.362 185.486C173.797 189.721 166.994 192.01 160 192C154.743 191.984 149.534 193.008 144.674 195.013C139.814 197.017 135.398 199.963 131.68 203.68C127.963 207.398 125.017 211.814 123.013 216.674C121.008 221.534 119.984 226.743 120 232V264L87.28 316.32C82.5393 323.96 80.0186 332.769 80 341.76V392H200.368C200.171 391.407 200.048 390.791 200 390.168V328C200 325.878 200.843 323.843 202.343 322.343C203.843 320.843 205.878 320 208 320C210.122 320 212.157 320.843 213.657 322.343C215.157 323.843 216 325.878 216 328V390.168C215.952 390.791 215.829 391.407 215.632 392H224V504H288V392H296.368C296.171 391.407 296.048 390.791 296 390.168V328C296 325.878 296.843 323.843 298.343 322.343C299.843 320.843 301.878 320 304 320C306.122 320 308.157 320.843 309.657 322.343C311.157 323.843 312 325.878 312 328V390.168C311.952 390.791 311.829 391.407 311.632 392H432V341.76C431.981 332.769 429.461 323.96 424.72 316.32V316.32ZM152 344H120C117.878 344 115.843 343.157 114.343 341.657C112.843 340.157 112 338.122 112 336C112 333.878 112.843 331.843 114.343 330.343C115.843 328.843 117.878 328 120 328H152C154.122 328 156.157 328.843 157.657 330.343C159.157 331.843 160 333.878 160 336C160 338.122 159.157 340.157 157.657 341.657C156.157 343.157 154.122 344 152 344ZM208 272H144C141.878 272 139.843 271.157 138.343 269.657C136.843 268.157 136 266.122 136 264C136 261.878 136.843 259.843 138.343 258.343C139.843 256.843 141.878 256 144 256H208C210.122 256 212.157 256.843 213.657 258.343C215.157 259.843 216 261.878 216 264C216 266.122 215.157 268.157 213.657 269.657C212.157 271.157 210.122 272 208 272ZM304 264C304 261.878 304.843 259.843 306.343 258.343C307.843 256.843 309.878 256 312 256H344C346.122 256 348.157 256.843 349.657 258.343C351.157 259.843 352 261.878 352 264C352 266.122 351.157 268.157 349.657 269.657C348.157 271.157 346.122 272 344 272H312C309.878 272 307.843 271.157 306.343 269.657C304.843 268.157 304 266.122 304 264ZM386.984 336H344C341.878 336 339.843 335.157 338.343 333.657C336.843 332.157 336 330.122 336 328C336 325.878 336.843 323.843 338.343 322.343C339.843 320.843 341.878 320 344 320H386.984C389.106 320 391.141 320.843 392.641 322.343C394.141 323.843 394.984 325.878 394.984 328C394.984 330.122 394.141 332.157 392.641 333.657C391.141 335.157 389.106 336 386.984 336Z" fill="white"/>
</svg>
