<svg width="512" height="512" viewBox="0 0 512 512" fill="none" xmlns="http://www.w3.org/2000/svg">
<path d="M416 308C415.984 348.038 400.882 386.599 373.704 416H424V512H464.496L464 352C464 326.776 441.056 306.144 416 304.192V308Z" fill="white"/>
<path d="M96 416H138.296C111.118 386.599 96.0164 348.038 96 308V304.72C84.8235 306.609 74.6762 312.393 67.3551 321.046C60.034 329.7 56.0115 340.665 56 352V512H96V416Z" fill="white"/>
<path d="M256 468C219.203 468.027 183.532 455.305 155.056 432H112V512H408V432H356.944C328.468 455.305 292.797 468.027 256 468V468Z" fill="white"/>
<path d="M272 288V144C272 135.513 268.629 127.374 262.627 121.373C256.626 115.371 248.487 112 240 112H152V136L112 184L152 192V248H224V288H272Z" fill="white"/>
<path d="M256 376C261.385 375.989 266.752 375.374 272 374.168V304H184C184.021 323.089 191.614 341.39 205.112 354.888C218.61 368.386 236.911 375.979 256 376V376Z" fill="white"/>
<path d="M272 390.472C259.302 392.873 246.23 392.439 233.719 389.199C221.209 385.96 209.568 379.996 199.631 371.733C189.694 363.471 181.706 353.115 176.238 341.406C170.769 329.696 167.957 316.923 168 304H112V308C111.944 328.275 116.183 348.333 124.436 366.852C132.689 385.372 144.771 401.934 159.885 415.448C175 428.963 192.805 439.124 212.129 445.263C231.452 451.401 251.857 453.378 272 451.064V390.472ZM160 368H144C141.878 368 139.843 367.157 138.343 365.657C136.843 364.157 136 362.122 136 360C136 357.878 136.843 355.843 138.343 354.343C139.843 352.843 141.878 352 144 352H160C162.122 352 164.157 352.843 165.657 354.343C167.157 355.843 168 357.878 168 360C168 362.122 167.157 364.157 165.657 365.657C164.157 367.157 162.122 368 160 368ZM200 424H184C181.878 424 179.843 423.157 178.343 421.657C176.843 420.157 176 418.122 176 416C176 413.878 176.843 411.843 178.343 410.343C179.843 408.843 181.878 408 184 408H200C202.122 408 204.157 408.843 205.657 410.343C207.157 411.843 208 413.878 208 416C208 418.122 207.157 420.157 205.657 421.657C204.157 423.157 202.122 424 200 424Z" fill="white"/>
<path d="M392 304V320H352V415.112C367.099 401.651 379.182 385.149 387.454 366.689C395.726 348.229 400.002 328.229 400 308V304H392ZM384 352H368C365.878 352 363.843 351.157 362.343 349.657C360.843 348.157 360 346.122 360 344C360 341.878 360.843 339.843 362.343 338.343C363.843 336.843 365.878 336 368 336H384C386.122 336 388.157 336.843 389.657 338.343C391.157 339.843 392 341.878 392 344C392 346.122 391.157 348.157 389.657 349.657C388.157 351.157 386.122 352 384 352Z" fill="white"/>
<path d="M368 62.64C366.681 63.5414 365.117 64.0161 363.52 64H153.76C144.076 73.7343 135.441 84.46 128 96H240C252.73 96 264.939 101.057 273.941 110.059C282.943 119.061 288 131.27 288 144V448.4C297.36 449.76 336 427.76 336 427.76V304H376V80C373.999 73.9291 371.315 68.1051 368 62.64V62.64ZM328 248H312C309.878 248 307.843 247.157 306.343 245.657C304.843 244.157 304 242.122 304 240C304 237.878 304.843 235.843 306.343 234.343C307.843 232.843 309.878 232 312 232H328C330.122 232 332.157 232.843 333.657 234.343C335.157 235.843 336 237.878 336 240C336 242.122 335.157 244.157 333.657 245.657C332.157 247.157 330.122 248 328 248ZM352 168H336C333.878 168 331.843 167.157 330.343 165.657C328.843 164.157 328 162.122 328 160C328 157.878 328.843 155.843 330.343 154.343C331.843 152.843 333.878 152 336 152H352C354.122 152 356.157 152.843 357.657 154.343C359.157 155.843 360 157.878 360 160C360 162.122 359.157 164.157 357.657 165.657C356.157 167.157 354.122 168 352 168ZM256 16C238.253 16.0415 220.727 19.9452 204.64 27.44C192.787 32.8878 181.661 39.7945 171.52 48H356.64C320.08 10.64 256 16 256 16Z" fill="white"/>
<path d="M171.52 48C165.246 52.9266 159.312 58.2721 153.76 64H128C125.878 64 123.843 63.1571 122.343 61.6569C120.843 60.1566 120 58.1217 120 56V16H96C93.8783 16 91.8434 15.1571 90.3431 13.6569C88.8429 12.1566 88 10.1217 88 8C88 5.87827 88.8429 3.84344 90.3431 2.34315C91.8434 0.842855 93.8783 0 96 0L128 0C130.122 0 132.157 0.842855 133.657 2.34315C135.157 3.84344 136 5.87827 136 8V48H171.52Z" fill="white"/>
</svg>
