<svg width="512" height="512" viewBox="0 0 512 512" fill="none" xmlns="http://www.w3.org/2000/svg">
<path d="M128 391.504C112.547 389.547 98.3362 382.025 88.0285 370.346C77.7208 358.668 72.0225 343.633 72 328.056V280H24C24 280 8 456 104 480H128V391.504Z" fill="white"/>
<path d="M487 280H440V328.056C439.978 343.633 434.279 358.668 423.971 370.346C413.664 382.025 399.453 389.547 384 391.504V480H407C503 456 487 280 487 280V280Z" fill="white"/>
<path d="M503.056 280C504.544 298.696 515.216 469.44 410.88 495.52L408.968 496H102.032L100.12 495.52C-4.216 469.44 6.456 298.696 7.944 280H0V512H512V280H503.056Z" fill="white"/>
<path d="M144 432H200V488H144V432Z" fill="white"/>
<path d="M312 432H368V488H312V432Z" fill="white"/>
<path d="M136 376H144V416H200V336H88.7119C90.5923 347.182 96.3744 357.336 105.032 364.659C113.689 371.982 124.661 376 136 376V376Z" fill="white"/>
<path d="M136 376H144V416H200V336H88.7119" fill="white"/>
<path d="M144 432H200V488H144V432Z" fill="white"/>
<path d="M160 104H165.6L152.08 9.136C152.073 8.75626 152.094 8.37652 152.144 8H136C123.27 8 111.061 13.0571 102.059 22.0589C93.0571 31.0606 88 43.2696 88 56V112H160V104Z" fill="white"/>
<path d="M88 128H160V184H88V128Z" fill="white"/>
<path d="M160 248V200H88V248H136C138.122 248 140.157 248.843 141.657 250.343C143.157 251.843 144 253.878 144 256C144 258.122 143.157 260.157 141.657 261.657C140.157 263.157 138.122 264 136 264H88V320H200V307.288C188.194 302.502 178.083 294.305 170.958 283.744C163.833 273.184 160.018 260.739 160 248V248Z" fill="white"/>
<path d="M352 128H424V184H352V128Z" fill="white"/>
<path d="M376 8H367.848C367.909 8.55565 367.909 9.11634 367.848 9.672L347.608 104H352V112H424V56C424 43.2696 418.943 31.0606 409.941 22.0589C400.939 13.0571 388.73 8 376 8Z" fill="white"/>
<path d="M312 432H368V488H312V432Z" fill="white"/>
<path d="M352 248C351.982 260.739 348.167 273.184 341.042 283.744C333.917 294.305 323.806 302.502 312 307.288V320H344C346.122 320 348.157 320.843 349.657 322.343C351.157 323.843 352 325.878 352 328C352 330.122 351.157 332.157 349.657 333.657C348.157 335.157 346.122 336 344 336H312V416H368V376H376C387.334 375.987 398.297 371.963 406.949 364.642C415.601 357.321 421.383 347.175 423.272 336H376C373.878 336 371.843 335.157 370.343 333.657C368.843 332.157 368 330.122 368 328C368 325.878 368.843 323.843 370.343 322.343C371.843 320.843 373.878 320 376 320H424V264H376C373.878 264 371.843 263.157 370.343 261.657C368.843 260.157 368 258.122 368 256C368 253.878 368.843 251.843 370.343 250.343C371.843 248.843 373.878 248 376 248H424V200H352V248Z" fill="white"/>
<path d="M224 64H248V8H168.08L181.792 104H224V64Z" fill="white"/>
<path d="M264 8V64H288V104H331.248L351.816 8H264Z" fill="white"/>
<path d="M296 311.44V480H216V311.44C217.12 311.6 231.6 311.68 248 311.68V448C248 450.122 248.843 452.157 250.343 453.657C251.843 455.157 253.878 456 256 456C258.122 456 260.157 455.157 261.657 453.657C263.157 452.157 264 450.122 264 448V311.68C280.4 311.68 294.88 311.6 296 311.44Z" fill="white"/>
<path d="M176 120V248C176 260.73 181.057 272.939 190.059 281.941C199.061 290.943 211.27 296 224 296H248C248 293.878 248.843 291.843 250.343 290.343C251.843 288.843 253.878 288 256 288C258.122 288 260.157 288.843 261.657 290.343C263.157 291.843 264 293.878 264 296H288C300.73 296 312.939 290.943 321.941 281.941C330.943 272.939 336 260.73 336 248V120H176ZM312 184H264V232C264 234.122 263.157 236.157 261.657 237.657C260.157 239.157 258.122 240 256 240C253.878 240 251.843 239.157 250.343 237.657C248.843 236.157 248 234.122 248 232V184H200C197.878 184 195.843 183.157 194.343 181.657C192.843 180.157 192 178.122 192 176C192 173.878 192.843 171.843 194.343 170.343C195.843 168.843 197.878 168 200 168H312C314.122 168 316.157 168.843 317.657 170.343C319.157 171.843 320 173.878 320 176C320 178.122 319.157 180.157 317.657 181.657C316.157 183.157 314.122 184 312 184Z" fill="white"/>
</svg>
